<?xml version="1.0" encoding="UTF-8" standalone="no"?>
<svg
   xmlns:dc="http://purl.org/dc/elements/1.1/"
   xmlns:cc="http://creativecommons.org/ns#"
   xmlns:rdf="http://www.w3.org/1999/02/22-rdf-syntax-ns#"
   xmlns:svg="http://www.w3.org/2000/svg"
   xmlns="http://www.w3.org/2000/svg"
   xmlns:sodipodi="http://sodipodi.sourceforge.net/DTD/sodipodi-0.dtd"
   xmlns:inkscape="http://www.inkscape.org/namespaces/inkscape"
   inkscape:export-ydpi="96"
   inkscape:export-xdpi="96"
   inkscape:export-filename="tp-note.png"
   height="24"
   width="24"
   version="1.1"
   id="svg86"
   sodipodi:docname="tpnote.svg"
   inkscape:version="1.0.2 (e86c870879, 2021-01-15)">
  <metadata
     id="metadata92">
    <rdf:RDF>
      <cc:Work
         rdf:about="">
        <dc:format>image/svg+xml</dc:format>
        <dc:type
           rdf:resource="http://purl.org/dc/dcmitype/StillImage" />
        <dc:title />
      </cc:Work>
    </rdf:RDF>
  </metadata>
  <defs
     id="defs90" />
  <sodipodi:namedview
     inkscape:document-rotation="0"
     pagecolor="#ffffff"
     bordercolor="#666666"
     borderopacity="1"
     objecttolerance="10"
     gridtolerance="10"
     guidetolerance="10"
     inkscape:pageopacity="0"
     inkscape:pageshadow="2"
     inkscape:window-width="1916"
     inkscape:window-height="1041"
     id="namedview88"
     showgrid="false"
     inkscape:zoom="11.328329"
     inkscape:cx="-2.7813028"
     inkscape:cy="26.452373"
     inkscape:window-x="0"
     inkscape:window-y="18"
     inkscape:window-maximized="0"
     inkscape:current-layer="g84" />
  <g
     transform="translate(0 -1028.4)"
     id="g84">
    <path
       d="m5 1030.4c-1.1046 0-2 0.9-2 2v1h2.0938c0.2038-0.6 0.7504-1 1.4062-1 0.8284 0 1.5 0.6 1.5 1.5 0 0.8-0.6716 1.5-1.5 1.5-0.6558 0-1.2024-0.5-1.4062-1h-2.0938v4h2.0938c0.2038-0.6 0.7504-1 1.4062-1 0.8284 0 1.5 0.6 1.5 1.5 0 0.8-0.6716 1.5-1.5 1.5-0.6558 0-1.2024-0.5-1.4062-1h-2.0938v1 3h2.0938c0.2038-0.6 0.7504-1 1.4062-1 0.8284 0 1.5 0.6 1.5 1.5 0 0.8-0.6716 1.5-1.5 1.5-0.6558 0-1.2024-0.5-1.4062-1h-2.0938v4h2.0938c0.2038-0.6 0.7504-1 1.4062-1 0.8284 0 1.5 0.6 1.5 1.5 0 0.8-0.6716 1.5-1.5 1.5-0.6558 0-1.2024-0.5-1.4062-1h-2.0938v1c0 1.1 0.8954 2 2 2h14c1.105 0 2-0.9 2-2v-6-4-4l-6-6h-10z"
       fill="#95a5a6"
       id="path78"
       style="fill:#c4bda8;fill-opacity:1;" />
    <path
       d="m5 1c-1.1046 0-2 0.8954-2 2v1h2.0938c0.2038-0.5864 0.7504-1 1.4062-1 0.8284 0 1.5 0.6716 1.5 1.5s-0.6716 1.5-1.5 1.5c-0.6558 0-1.2024-0.4136-1.4062-1h-2.0938v4h2.0938c0.2038-0.5864 0.7504-1 1.4062-1 0.8284 0 1.5 0.6716 1.5 1.5 0 0.828-0.6716 1.5-1.5 1.5-0.6558 0-1.2024-0.414-1.4062-1h-2.0938v1 3h2.0938c0.2038-0.586 0.7504-1 1.4062-1 0.8284 0 1.5 0.672 1.5 1.5s-0.6716 1.5-1.5 1.5c-0.6558 0-1.2024-0.414-1.4062-1h-2.0938v4h2.0938c0.2038-0.586 0.7504-1 1.4062-1 0.8284 0 1.5 0.672 1.5 1.5s-0.6716 1.5-1.5 1.5c-0.6558 0-1.2024-0.414-1.4062-1h-2.0938v1c0 1.105 0.8954 2 2 2h14c1.105 0 2-0.895 2-2v-6-4-4l-6-6h-10z"
       transform="translate(0 1028.4)"
       fill="#bdc3c7"
       id="path80"
       style="fill:#f3f2e4;fill-opacity:1" />
    <text
       xml:space="preserve"
       style="font-weight:bold;font-size:40px;line-height:1.25;font-family:Quicksand;-inkscape-font-specification:'Quicksand Bold';font-style:normal;font-stretch:normal;font-variant:normal;"
       x="11.074577"
       y="1049.9534"
       id="text919"><tspan
         sodipodi:role="line"
         id="tspan917"
         x="11.074577"
         y="1049.9534" /></text>
    <text
       xml:space="preserve"
       style="font-weight:bold;font-size:10px;line-height:1.25;font-family:Quicksand;-inkscape-font-specification:'Quicksand Bold';font-style:normal;font-stretch:normal;font-variant:normal;"
       x="11.784141"
       y="1039.9899"
       id="text923"><tspan
         sodipodi:role="line"
         id="tspan921"
         x="11.784141"
         y="1039.9899" /></text>
    <text
       id="text847"
       y="1044.2048"
       x="8.2312737"
       style="font-weight:bold;font-size:14px;line-height:1.25;font-family:Quicksand;-inkscape-font-specification:'Quicksand Bold'"
       xml:space="preserve"><tspan
         style="font-size:14px;fill:#316128;fill-opacity:1"
         y="1044.2048"
         x="8.2312737"
         id="tspan845"
         sodipodi:role="line">T</tspan></text>
    <path
       d="m21 1035.4-6-6v4c0 1.1 0.895 2 2 2h4z"
       fill="#95a5a6"
       id="path82"
       style="fill:#c4bda8;fill-opacity:1" />
    <text
       id="text851"
       y="1046.1329"
       x="13.713947"
       style="font-weight:bold;font-size:10px;line-height:1.25;font-family:Quicksand;-inkscape-font-specification:'Quicksand Bold';letter-spacing:0px;fill:#316128;fill-opacity:1"
       xml:space="preserve"><tspan
         y="1046.1329"
         x="13.713947"
         id="tspan849"
         sodipodi:role="line">p</tspan></text>
  </g>
</svg>
